<svg version="1.1" id="Layer_1" xmlns="http://www.w3.org/2000/svg" xmlns:xlink="http://www.w3.org/1999/xlink" x="0px" y="0px"
	 width="100%" viewBox="0 0 225 225" enable-background="new 0 0 225 225" xml:space="preserve">
<path fill="#96B95E" opacity="1.000000" stroke="none" 
	d="
M101.000000,1.000000 
	C109.020897,1.000000 117.041801,1.000000 125.748833,1.335289 
	C174.172058,8.321257 210.822098,40.505074 222.605743,86.182175 
	C223.871063,91.086906 224.874878,96.059097 226.000000,101.000000 
	C226.000000,109.354233 226.000000,117.708466 225.666611,126.739288 
	C225.200623,128.064911 225.057938,128.712067 224.936829,129.363235 
	C215.958725,177.639053 187.969955,208.779419 140.806503,222.554123 
	C135.949814,223.972565 130.939194,224.864014 126.000000,226.000000 
	C117.645767,226.000000 109.291534,226.000000 100.262115,225.665405 
	C99.102203,225.220764 98.621468,225.087357 98.132210,225.003937 
	C49.184219,216.657822 14.161829,184.062103 3.472993,136.924286 
	C2.719229,133.600189 1.827549,130.307373 1.000001,127.000000 
	C1.000000,118.312439 1.000000,109.624870 1.334690,100.262314 
	C2.060979,97.633354 2.438439,95.676445 2.846254,93.725868 
	C12.404568,48.008316 39.725121,18.543379 84.273491,4.962780 
	C89.743347,3.295290 95.419464,2.304424 101.000000,1.000000 
M107.100128,7.610461 
	C104.442924,7.826294 101.765175,7.899513 99.131523,8.278865 
	C36.860020,17.248459 -3.707063,76.310074 10.161876,137.768478 
	C22.693125,193.299088 80.247429,229.815247 135.447174,217.257568 
	C192.461319,204.287109 227.610565,151.847748 217.871780,94.287819 
	C209.188248,42.964767 159.743011,3.907707 107.100128,7.610461 
z"/>
<path fill="#FEFFFE" opacity="1.000000" stroke="none" 
	d="
M226.000000,100.531342 
	C224.874878,96.059097 223.871063,91.086906 222.605743,86.182175 
	C210.822098,40.505074 174.172058,8.321257 126.217484,1.335289 
	C159.260269,1.000000 192.520523,1.000000 226.000000,1.000000 
	C226.000000,34.020573 226.000000,67.041626 226.000000,100.531342 
z"/>
<path fill="#FEFFFE" opacity="1.000000" stroke="none" 
	d="
M126.468658,226.000000 
	C130.939194,224.864014 135.949814,223.972565 140.806503,222.554123 
	C187.969955,208.779419 215.958725,177.639053 224.936829,129.363235 
	C225.057938,128.712067 225.200623,128.064911 225.666611,127.207947 
	C226.000000,159.927292 226.000000,192.854599 226.000000,226.000000 
	C192.979431,226.000000 159.958374,226.000000 126.468658,226.000000 
z"/>
<path fill="#FEFFFE" opacity="1.000000" stroke="none" 
	d="
M100.531342,1.000000 
	C95.419464,2.304424 89.743347,3.295290 84.273491,4.962780 
	C39.725121,18.543379 12.404568,48.008316 2.846254,93.725868 
	C2.438439,95.676445 2.060979,97.633354 1.334690,99.793655 
	C1.000000,67.072693 1.000000,34.145393 1.000000,1.000000 
	C34.020573,1.000000 67.041626,1.000000 100.531342,1.000000 
z"/>
<path fill="#FEFFFE" opacity="1.000000" stroke="none" 
	d="
M1.000001,127.468658 
	C1.827549,130.307373 2.719229,133.600189 3.472993,136.924286 
	C14.161829,184.062103 49.184219,216.657822 98.132210,225.003937 
	C98.621468,225.087357 99.102203,225.220764 99.793457,225.665405 
	C67.073067,226.000000 34.146137,226.000000 1.000000,226.000000 
	C1.000000,193.312759 1.000000,160.625046 1.000001,127.468658 
z"/>
<path fill="#FCFDFB" opacity="1.000000" stroke="none" 
	d="
M107.554016,7.558080 
	C159.743011,3.907707 209.188248,42.964767 217.871780,94.287819 
	C227.610565,151.847748 192.461319,204.287109 135.447174,217.257568 
	C80.247429,229.815247 22.693125,193.299088 10.161876,137.768478 
	C-3.707063,76.310074 36.860020,17.248459 99.131523,8.278865 
	C101.765175,7.899513 104.442924,7.826294 107.554016,7.558080 
M102.017441,209.796005 
	C105.176941,209.956848 108.334656,210.183395 111.496193,210.268829 
	C169.846420,211.845566 216.752228,160.450958 209.869568,102.498009 
	C203.368073,47.754467 153.884140,9.929595 99.031059,17.774458 
	C44.878006,25.519209 7.480111,78.405533 18.299154,131.941681 
	C26.648405,173.256470 57.830208,202.518326 102.017441,209.796005 
z"/>
<path fill="#95B85C" opacity="1.000000" stroke="none" 
	d="
M101.569061,209.729828 
	C57.830208,202.518326 26.648405,173.256470 18.299154,131.941681 
	C7.480111,78.405533 44.878006,25.519209 99.031059,17.774458 
	C153.884140,9.929595 203.368073,47.754467 209.869568,102.498009 
	C216.752228,160.450958 169.846420,211.845566 111.496193,210.268829 
	C108.334656,210.183395 105.176941,209.956848 101.569061,209.729828 
M121.629997,151.324295 
	C118.337204,148.974228 119.447151,146.874237 122.152321,145.146439 
	C126.357925,142.460312 130.915176,140.270782 134.898788,137.301178 
	C146.633194,128.553726 158.889252,127.723045 171.911942,134.330826 
	C171.911942,139.513947 171.911942,144.951233 171.911942,149.761993 
	C168.607620,151.246384 165.715698,152.371658 163.033813,153.872299 
	C162.361649,154.248398 162.122574,155.840469 162.163177,156.854523 
	C162.182327,157.332779 163.423401,158.243652 163.957062,158.143051 
	C167.978836,157.384872 172.026062,156.621811 175.908707,155.373260 
	C176.774490,155.094849 177.415390,152.905487 177.477890,151.564148 
	C177.679245,147.242783 177.665863,142.903381 177.532898,138.577148 
	C177.437088,135.460312 177.840347,131.882919 176.431152,129.420975 
	C175.604401,127.976578 171.453781,128.786926 169.159088,127.769409 
	C159.400955,123.442459 149.782944,124.095436 140.103775,127.843597 
	C139.937469,127.907990 139.599503,127.529121 139.194962,127.259239 
	C141.304337,119.743797 139.657364,113.023293 134.755402,106.868149 
	C133.704346,105.548378 133.207886,103.218094 133.474426,101.512466 
	C134.932541,92.181664 131.629150,84.993652 124.521507,79.076370 
	C119.717140,75.076622 114.912804,70.989555 110.684044,66.410042 
	C106.399384,61.769970 101.646973,59.432613 95.298813,59.848206 
	C86.661804,60.413651 77.987946,60.441761 69.358063,61.080769 
	C64.148750,61.466496 59.666519,60.530098 55.331238,57.427299 
	C51.208279,54.476460 49.421337,55.619591 49.355076,60.761990 
	C49.262806,67.922836 49.731720,75.115219 49.209045,82.238968 
	C48.741600,88.609917 50.231323,92.891174 57.112080,94.070480 
	C58.192989,94.255745 59.314995,94.965424 60.144794,95.729378 
	C66.205551,101.309143 73.148216,103.640038 81.524147,103.521378 
	C90.715607,103.391159 96.289948,110.672066 95.317787,119.944893 
	C94.364731,129.035461 100.174759,138.452988 109.107178,142.193634 
	C111.066406,143.014084 113.106033,143.642532 114.985558,144.315353 
	C115.145767,148.103195 113.730217,149.373398 110.125893,148.628494 
	C106.390610,147.856522 102.553902,147.526276 98.746117,147.165909 
	C93.324921,146.652893 89.110199,149.580368 88.303925,154.251282 
	C87.541061,158.670776 90.433540,162.583359 95.689903,163.924530 
	C104.707100,166.225296 113.657272,169.081207 122.823204,170.405075 
	C129.075455,171.308105 135.673859,170.236389 142.055511,169.505966 
	C143.534317,169.336716 144.760361,166.959152 146.102722,165.597733 
	C144.365097,165.299942 142.610184,164.675369 140.893143,164.766266 
	C135.941437,165.028381 130.833893,166.599152 126.098061,165.804794 
	C116.123779,164.131790 106.318604,161.386734 96.526016,158.774307 
	C95.283722,158.442886 94.532791,156.269592 93.554222,154.949631 
	C94.933182,154.005356 96.446404,152.102753 97.669075,152.274033 
	C105.013954,153.303055 112.275589,154.910919 119.602760,156.091187 
	C121.783646,156.442490 124.299431,156.612106 126.287888,155.867096 
	C130.473343,154.298904 134.502655,152.231293 138.399139,150.021469 
	C139.681488,149.294189 140.357376,147.497574 141.310593,146.189941 
	C139.581055,146.012115 137.637222,145.237335 136.161621,145.766998 
	C131.495468,147.441910 127.004494,149.604904 121.629997,151.324295 
z"/>
<path fill="#F9FBF7" opacity="1.000000" stroke="none" 
	d="
M122.037880,151.451706 
	C127.004494,149.604904 131.495468,147.441910 136.161621,145.766998 
	C137.637222,145.237335 139.581055,146.012115 141.310593,146.189941 
	C140.357376,147.497574 139.681488,149.294189 138.399139,150.021469 
	C134.502655,152.231293 130.473343,154.298904 126.287888,155.867096 
	C124.299431,156.612106 121.783646,156.442490 119.602760,156.091187 
	C112.275589,154.910919 105.013954,153.303055 97.669075,152.274033 
	C96.446404,152.102753 94.933182,154.005356 93.554222,154.949631 
	C94.532791,156.269592 95.283722,158.442886 96.526016,158.774307 
	C106.318604,161.386734 116.123779,164.131790 126.098061,165.804794 
	C130.833893,166.599152 135.941437,165.028381 140.893143,164.766266 
	C142.610184,164.675369 144.365097,165.299942 146.102722,165.597733 
	C144.760361,166.959152 143.534317,169.336716 142.055511,169.505966 
	C135.673859,170.236389 129.075455,171.308105 122.823204,170.405075 
	C113.657272,169.081207 104.707100,166.225296 95.689903,163.924530 
	C90.433540,162.583359 87.541061,158.670776 88.303925,154.251282 
	C89.110199,149.580368 93.324921,146.652893 98.746117,147.165909 
	C102.553902,147.526276 106.390610,147.856522 110.125893,148.628494 
	C113.730217,149.373398 115.145767,148.103195 114.985558,144.315353 
	C113.106033,143.642532 111.066406,143.014084 109.107178,142.193634 
	C100.174759,138.452988 94.364731,129.035461 95.317787,119.944893 
	C96.289948,110.672066 90.715607,103.391159 81.524147,103.521378 
	C73.148216,103.640038 66.205551,101.309143 60.144794,95.729378 
	C59.314995,94.965424 58.192989,94.255745 57.112080,94.070480 
	C50.231323,92.891174 48.741600,88.609917 49.209045,82.238968 
	C49.731720,75.115219 49.262806,67.922836 49.355076,60.761990 
	C49.421337,55.619591 51.208279,54.476460 55.331238,57.427299 
	C59.666519,60.530098 64.148750,61.466496 69.358063,61.080769 
	C77.987946,60.441761 86.661804,60.413651 95.298813,59.848206 
	C101.646973,59.432613 106.399384,61.769970 110.684044,66.410042 
	C114.912804,70.989555 119.717140,75.076622 124.521507,79.076370 
	C131.629150,84.993652 134.932541,92.181664 133.474426,101.512466 
	C133.207886,103.218094 133.704346,105.548378 134.755402,106.868149 
	C139.657364,113.023293 141.304337,119.743797 139.194962,127.259239 
	C139.599503,127.529121 139.937469,127.907990 140.103775,127.843597 
	C149.782944,124.095436 159.400955,123.442459 169.159088,127.769409 
	C171.453781,128.786926 175.604401,127.976578 176.431152,129.420975 
	C177.840347,131.882919 177.437088,135.460312 177.532898,138.577148 
	C177.665863,142.903381 177.679245,147.242783 177.477890,151.564148 
	C177.415390,152.905487 176.774490,155.094849 175.908707,155.373260 
	C172.026062,156.621811 167.978836,157.384872 163.957062,158.143051 
	C163.423401,158.243652 162.182327,157.332779 162.163177,156.854523 
	C162.122574,155.840469 162.361649,154.248398 163.033813,153.872299 
	C165.715698,152.371658 168.607620,151.246384 171.911942,149.761993 
	C171.911942,144.951233 171.911942,139.513947 171.911942,134.330826 
	C158.889252,127.723045 146.633194,128.553726 134.898788,137.301178 
	C130.915176,140.270782 126.357925,142.460312 122.152321,145.146439 
	C119.447151,146.874237 118.337204,148.974228 122.037880,151.451706 
M54.663021,66.013313 
	C54.662807,72.007805 54.514664,78.008553 54.767544,83.992348 
	C54.829903,85.467934 55.846218,87.359924 57.032528,88.242912 
	C60.187454,90.591187 63.519585,92.825935 67.072739,94.479469 
	C70.597969,96.120018 74.431259,97.179726 78.216026,98.159851 
	C82.466331,99.260551 86.887100,99.733803 91.095284,100.956459 
	C94.423340,101.923401 97.450287,103.956650 100.789688,104.842873 
	C102.670792,105.342087 104.913795,104.477577 106.993774,104.227409 
	C106.188011,102.162697 105.967194,99.362785 104.467819,98.169838 
	C99.795258,94.452156 94.776138,91.109001 89.622147,88.078545 
	C86.089340,86.001335 85.461899,83.145248 86.073883,79.669617 
	C86.236351,78.746902 87.486443,77.193901 87.895317,77.296227 
	C88.962166,77.563232 90.180931,78.397446 90.711205,79.353661 
	C91.470070,80.722107 91.670525,82.400208 91.901100,83.212334 
	C98.262894,79.735085 104.030663,76.582527 109.700745,73.483353 
	C102.758347,64.839699 102.684097,64.866196 91.693665,65.023750 
	C79.533897,65.198074 67.303604,68.616638 55.219757,64.331978 
	C55.170574,64.314545 54.922863,64.857002 54.663021,66.013313 
M135.044556,121.530197 
	C134.965134,117.129410 133.777374,113.208488 130.169907,109.731369 
	C122.391113,119.379547 112.935921,122.320572 101.349548,117.273308 
	C99.609093,124.177933 101.198425,129.508408 105.651054,133.797958 
	C110.709808,138.671448 116.903999,140.227051 123.565910,137.760849 
	C130.560944,135.171326 134.461731,129.930649 135.044556,121.530197 
M107.421997,80.511002 
	C104.122803,82.349075 100.823616,84.187149 96.736725,86.464066 
	C101.600754,89.817795 105.224205,92.134727 108.647507,94.716988 
	C114.478012,99.115028 114.186249,105.895653 108.158493,109.969139 
	C107.028122,110.733040 106.018799,111.676071 104.953613,112.536430 
	C105.051216,112.978569 105.148811,113.420708 105.246407,113.862854 
	C108.113754,114.073265 111.043518,114.766563 113.836983,114.405441 
	C122.991722,113.221992 129.824524,104.455154 128.760941,95.734459 
	C127.500870,85.402672 119.346954,79.270569 107.421997,80.511002 
z"/>
<path fill="#96B85D" opacity="1.000000" stroke="none" 
	d="
M54.715446,65.575645 
	C54.922863,64.857002 55.170574,64.314545 55.219757,64.331978 
	C67.303604,68.616638 79.533897,65.198074 91.693665,65.023750 
	C102.684097,64.866196 102.758347,64.839699 109.700745,73.483353 
	C104.030663,76.582527 98.262894,79.735085 91.901100,83.212334 
	C91.670525,82.400208 91.470070,80.722107 90.711205,79.353661 
	C90.180931,78.397446 88.962166,77.563232 87.895317,77.296227 
	C87.486443,77.193901 86.236351,78.746902 86.073883,79.669617 
	C85.461899,83.145248 86.089340,86.001335 89.622147,88.078545 
	C94.776138,91.109001 99.795258,94.452156 104.467819,98.169838 
	C105.967194,99.362785 106.188011,102.162697 106.993774,104.227402 
	C104.913795,104.477577 102.670792,105.342087 100.789688,104.842873 
	C97.450287,103.956650 94.423340,101.923401 91.095284,100.956459 
	C86.887100,99.733803 82.466331,99.260551 78.216026,98.159851 
	C74.431259,97.179726 70.597969,96.120018 67.072739,94.479469 
	C63.519585,92.825935 60.187454,90.591187 57.032528,88.242912 
	C55.846218,87.359924 54.829903,85.467934 54.767544,83.992348 
	C54.514664,78.008553 54.662807,72.007805 54.715446,65.575645 
z"/>
<path fill="#96B95D" opacity="1.000000" stroke="none" 
	d="
M135.035812,121.953735 
	C134.461731,129.930649 130.560944,135.171326 123.565910,137.760849 
	C116.903999,140.227051 110.709808,138.671448 105.651054,133.797958 
	C101.198425,129.508408 99.609093,124.177933 101.349548,117.273308 
	C112.935921,122.320572 122.391113,119.379547 130.169907,109.731369 
	C133.777374,113.208488 134.965134,117.129410 135.035812,121.953735 
z"/>
<path fill="#96B95E" opacity="1.000000" stroke="none" 
	d="
M107.815643,80.394852 
	C119.346954,79.270569 127.500870,85.402672 128.760941,95.734459 
	C129.824524,104.455154 122.991722,113.221992 113.836983,114.405441 
	C111.043518,114.766563 108.113754,114.073265 105.246407,113.862854 
	C105.148811,113.420708 105.051216,112.978569 104.953613,112.536430 
	C106.018799,111.676071 107.028122,110.733040 108.158493,109.969139 
	C114.186249,105.895653 114.478012,99.115028 108.647507,94.716988 
	C105.224205,92.134727 101.600754,89.817795 96.736725,86.464066 
	C100.823616,84.187149 104.122803,82.349075 107.815643,80.394852 
z"/>
</svg>