<svg version="1.1" id="Layer_1" xmlns="http://www.w3.org/2000/svg" xmlns:xlink="http://www.w3.org/1999/xlink" x="0px" y="0px"
	 width="100%" viewBox="0 0 225 225" enable-background="new 0 0 225 225" xml:space="preserve">
<path fill="#FEFEFE" opacity="1.000000" stroke="none" 
	d="
M155.000000,226.000000 
	C103.333336,226.000000 52.166672,226.000000 1.000007,226.000000 
	C1.000005,151.000000 1.000005,76.000015 1.000002,1.000017 
	C75.999992,1.000011 150.999985,1.000011 225.999969,1.000006 
	C225.999985,75.999985 225.999985,150.999969 226.000000,225.999969 
	C202.500000,226.000000 179.000000,226.000000 155.000000,226.000000 
M109.600937,20.959459 
	C106.622887,21.241812 103.635483,21.448942 100.668167,21.817699 
	C48.712536,28.274353 11.611414,79.092407 21.181896,130.667557 
	C31.024656,183.710007 81.168678,217.179459 133.952606,205.938217 
	C182.961334,195.500961 215.538818,145.609558 205.347382,96.599297 
	C195.789337,50.634933 158.032883,20.494972 109.600937,20.959459 
z"/>
<path fill="#010101" opacity="1.000000" stroke="none" 
	d="
M110.086563,20.951111 
	C158.032883,20.494972 195.789337,50.634933 205.347382,96.599297 
	C215.538818,145.609558 182.961334,195.500961 133.952606,205.938217 
	C81.168678,217.179459 31.024656,183.710007 21.181896,130.667557 
	C11.611414,79.092407 48.712536,28.274353 100.668167,21.817699 
	C103.635483,21.448942 106.622887,21.241812 110.086563,20.951111 
M143.380066,81.128777 
	C135.613266,77.819443 128.011490,73.997925 120.009193,71.419487 
	C116.079590,70.153320 110.902428,69.917656 107.156281,71.402122 
	C88.235764,78.899689 69.593414,87.100525 50.877628,95.111061 
	C49.368500,95.756973 48.041676,96.828804 46.004990,98.089752 
	C47.876301,99.178200 48.798145,99.853210 49.821785,100.289230 
	C69.317665,108.593468 88.743523,117.074356 108.411491,124.950256 
	C111.696159,126.265572 116.472351,125.991394 119.828857,124.638870 
	C138.862015,116.969368 157.678299,108.760864 176.548599,100.689507 
	C177.925720,100.100479 179.146210,99.145294 181.783325,97.544762 
	C168.284775,91.778931 156.182938,86.609695 143.380066,81.128777 
M134.832047,126.337936 
	C131.492050,127.788757 128.077942,129.091614 124.826988,130.720200 
	C117.312439,134.484634 110.025986,134.347107 102.367882,130.778717 
	C92.674744,126.262054 82.706413,122.335983 72.340584,117.936096 
	C72.340584,122.897346 72.672043,127.218063 72.274323,131.470581 
	C71.331207,141.554413 76.330505,147.804352 84.775200,152.088867 
	C95.481812,157.520966 106.936745,158.695740 118.705643,158.077728 
	C128.467377,157.565140 137.768204,155.388031 146.016403,149.911285 
	C150.571304,146.886871 154.386368,143.000565 154.715729,137.212662 
	C155.069946,130.988449 154.795761,124.728470 154.795761,117.987183 
	C148.007050,120.836342 141.778824,123.450272 134.832047,126.337936 
M163.668427,150.968643 
	C168.059967,150.968643 172.451523,150.968643 176.954773,150.968643 
	C176.954773,147.379700 177.109543,144.401840 176.918030,141.446396 
	C176.639511,137.148041 173.980225,134.632843 169.876480,134.632843 
	C165.795273,134.632828 163.079117,137.016586 162.919022,141.424149 
	C162.811081,144.396347 162.915207,147.376251 163.668427,150.968643 
M171.779877,109.367264 
	C166.810898,109.008842 163.580139,112.131691 165.577118,115.570305 
	C166.373047,116.940811 168.295410,118.395508 169.745316,118.438057 
	C171.166031,118.479759 173.669525,116.941017 173.853500,115.798851 
	C174.153519,113.936356 172.954407,111.832382 171.779877,109.367264 
M172.582092,122.514107 
	C170.485199,122.784958 168.165665,122.615143 166.386169,123.514214 
	C165.508102,123.957840 165.028198,126.552330 165.416061,127.863640 
	C166.307205,130.876678 168.982498,132.075333 171.685333,130.725754 
	C175.020752,129.060318 175.769363,126.203697 172.582092,122.514107 
z"/>
<path fill="#FDFDFD" opacity="1.000000" stroke="none" 
	d="
M143.730591,81.284622 
	C156.182938,86.609695 168.284775,91.778931 181.783325,97.544762 
	C179.146210,99.145294 177.925720,100.100479 176.548599,100.689507 
	C157.678299,108.760864 138.862015,116.969368 119.828857,124.638870 
	C116.472351,125.991394 111.696159,126.265572 108.411491,124.950256 
	C88.743523,117.074356 69.317665,108.593468 49.821785,100.289230 
	C48.798145,99.853210 47.876301,99.178200 46.004990,98.089752 
	C48.041676,96.828804 49.368500,95.756973 50.877628,95.111061 
	C69.593414,87.100525 88.235764,78.899689 107.156281,71.402122 
	C110.902428,69.917656 116.079590,70.153320 120.009193,71.419487 
	C128.011490,73.997925 135.613266,77.819443 143.730591,81.284622 
z"/>
<path fill="#FBFBFB" opacity="1.000000" stroke="none" 
	d="
M135.191315,126.201065 
	C141.778824,123.450272 148.007050,120.836342 154.795761,117.987183 
	C154.795761,124.728470 155.069946,130.988449 154.715729,137.212662 
	C154.386368,143.000565 150.571304,146.886871 146.016403,149.911285 
	C137.768204,155.388031 128.467377,157.565140 118.705643,158.077728 
	C106.936745,158.695740 95.481812,157.520966 84.775200,152.088867 
	C76.330505,147.804352 71.331207,141.554413 72.274323,131.470581 
	C72.672043,127.218063 72.340584,122.897346 72.340584,117.936096 
	C82.706413,122.335983 92.674744,126.262054 102.367882,130.778717 
	C110.025986,134.347107 117.312439,134.484634 124.826988,130.720200 
	C128.077942,129.091614 131.492050,127.788757 135.191315,126.201065 
z"/>
<path fill="#FAFAFA" opacity="1.000000" stroke="none" 
	d="
M163.296448,150.660675 
	C162.915207,147.376251 162.811081,144.396347 162.919022,141.424149 
	C163.079117,137.016586 165.795273,134.632828 169.876480,134.632843 
	C173.980225,134.632843 176.639511,137.148041 176.918030,141.446396 
	C177.109543,144.401840 176.954773,147.379700 176.954773,150.968643 
	C172.451523,150.968643 168.059967,150.968643 163.296448,150.660675 
z"/>
<path fill="#F0F0F0" opacity="1.000000" stroke="none" 
	d="
M172.083862,109.598785 
	C172.954407,111.832382 174.153519,113.936356 173.853500,115.798851 
	C173.669525,116.941017 171.166031,118.479759 169.745316,118.438057 
	C168.295410,118.395508 166.373047,116.940811 165.577118,115.570305 
	C163.580139,112.131691 166.810898,109.008842 172.083862,109.598785 
z"/>
<path fill="#F0F0F0" opacity="1.000000" stroke="none" 
	d="
M172.872726,122.779007 
	C175.769363,126.203697 175.020752,129.060318 171.685333,130.725754 
	C168.982498,132.075333 166.307205,130.876678 165.416061,127.863640 
	C165.028198,126.552330 165.508102,123.957840 166.386169,123.514214 
	C168.165665,122.615143 170.485199,122.784958 172.872726,122.779007 
z"/>
</svg>