<svg version="1.1" id="Layer_1" xmlns="http://www.w3.org/2000/svg" xmlns:xlink="http://www.w3.org/1999/xlink" x="0px" y="0px"
	 width="100%" viewBox="0 0 225 225" enable-background="new 0 0 225 225" xml:space="preserve">
<path fill="#4BBFE4" opacity="1.000000" stroke="none" 
	d="
M125.000000,226.000000 
	C117.312424,226.000000 109.624847,226.000000 101.237015,225.683029 
	C52.472973,218.509476 16.042274,186.653412 4.451066,141.316971 
	C3.235203,136.561401 2.147281,131.773117 1.000000,127.000000 
	C1.000000,118.645767 1.000000,110.291534 1.315676,101.239548 
	C1.739304,100.056335 1.875176,99.575218 1.951243,99.084808 
	C9.660864,49.380966 44.290272,12.982004 93.024582,3.410714 
	C97.662003,2.499936 102.340546,1.798580 107.000000,1.000000 
	C110.692909,1.000000 114.385818,1.000000 118.768417,1.343449 
	C119.618370,1.731637 119.776451,1.804426 119.939232,1.817157 
	C172.924026,5.961143 213.392151,41.940243 223.608948,94.033440 
	C224.517715,98.667038 225.208160,103.343468 226.000000,108.000000 
	C226.000000,111.692909 226.000000,115.385818 225.659241,119.763351 
	C225.238647,120.770081 225.110962,121.088486 225.085800,121.414803 
	C221.193573,171.858963 186.707428,211.936630 137.449341,223.238556 
	C133.306458,224.189102 129.150101,225.080902 125.000000,226.000000 
M29.686182,125.262810 
	C29.588581,125.524872 29.646725,125.757812 29.982281,126.890411 
	C30.064751,131.291931 30.147219,135.693466 30.161671,141.018219 
	C30.256330,145.158722 30.350990,149.299240 30.281382,154.234818 
	C30.238754,164.768082 31.967468,167.281723 40.940338,167.838623 
	C54.593727,168.685974 56.973015,167.133698 56.246284,153.270157 
	C65.834419,152.875717 75.422562,152.481262 85.927216,152.273773 
	C103.283424,152.211411 120.639641,152.149048 138.772354,152.345016 
	C144.334076,152.757294 149.890228,153.292999 155.459229,153.544098 
	C160.187820,153.757294 164.931198,153.642044 169.581161,154.429916 
	C169.529327,165.078903 171.145889,167.108414 180.316833,167.908035 
	C193.667816,169.072144 195.857742,166.844284 194.783539,152.472321 
	C194.525864,140.000412 193.950729,127.524612 194.103821,115.057747 
	C194.244263,103.621490 190.801392,94.176193 181.424835,87.246506 
	C180.816422,86.796867 180.301880,86.220215 179.401642,85.385513 
	C183.373611,84.984222 186.832901,84.909340 190.146439,84.176025 
	C191.646805,83.843994 193.894089,82.269104 193.964539,81.143044 
	C194.078979,79.314186 193.185837,76.828148 191.828613,75.612259 
	C187.685059,71.900139 182.851501,72.303543 178.480484,76.039444 
	C177.535263,76.847321 176.367050,77.394287 174.930740,78.293610 
	C173.854202,76.560692 172.934128,75.222969 172.159164,73.805893 
	C169.611252,69.146767 167.120300,64.456520 164.599243,59.782673 
	C161.970886,54.909866 158.116684,51.745411 152.396103,51.577225 
	C144.257339,51.337936 136.113495,51.271305 127.049400,50.974777 
	C117.046265,51.026340 107.043129,51.077904 96.118332,50.981853 
	C91.305168,51.243984 86.477333,51.883080 81.681648,51.696354 
	C68.210403,51.171844 59.472683,57.439442 54.325401,69.585052 
	C52.932541,72.871674 50.878891,75.878250 48.561443,80.029114 
	C47.585976,78.466644 47.214062,77.701294 46.690563,77.059601 
	C42.962646,72.489960 37.821228,71.636780 33.291336,75.298012 
	C31.805075,76.499268 30.498739,78.903503 30.567396,80.701996 
	C30.612827,81.892090 33.104401,83.582047 34.762508,83.993271 
	C38.166203,84.837440 41.745678,84.972870 45.576283,85.439438 
	C42.216000,89.031982 39.151707,92.279930 36.119503,95.557556 
	C32.902134,99.035316 30.080999,102.696175 30.600925,108.666595 
	C30.345722,114.127037 30.090521,119.587486 29.686182,125.262810 
z"/>
<path fill="#FEFEFF" opacity="1.000000" stroke="none" 
	d="
M226.000000,107.531342 
	C225.208160,103.343468 224.517715,98.667038 223.608948,94.033440 
	C213.392151,41.940243 172.924026,5.961143 119.939232,1.817157 
	C119.776451,1.804426 119.618370,1.731637 119.229050,1.343449 
	C154.593613,1.000000 190.187225,1.000000 226.000000,1.000000 
	C226.000000,36.353928 226.000000,71.708305 226.000000,107.531342 
z"/>
<path fill="#FEFFFF" opacity="1.000000" stroke="none" 
	d="
M125.468658,226.000000 
	C129.150101,225.080902 133.306458,224.189102 137.449341,223.238556 
	C186.707428,211.936630 221.193573,171.858963 225.085800,121.414803 
	C225.110962,121.088486 225.238647,120.770081 225.659241,120.223991 
	C226.000000,155.258499 226.000000,190.517014 226.000000,226.000000 
	C192.646103,226.000000 159.291718,226.000000 125.468658,226.000000 
z"/>
<path fill="#FEFFFF" opacity="1.000000" stroke="none" 
	d="
M106.531342,1.000000 
	C102.340546,1.798580 97.662003,2.499936 93.024582,3.410714 
	C44.290272,12.982004 9.660864,49.380966 1.951243,99.084808 
	C1.875176,99.575218 1.739304,100.056335 1.315676,100.770897 
	C1.000000,67.737595 1.000000,34.475193 1.000000,1.000000 
	C36.020607,1.000000 71.041649,1.000000 106.531342,1.000000 
z"/>
<path fill="#FEFFFF" opacity="1.000000" stroke="none" 
	d="
M1.000000,127.468658 
	C2.147281,131.773117 3.235203,136.561401 4.451066,141.316971 
	C16.042274,186.653412 52.472973,218.509476 100.768372,225.683029 
	C67.740105,226.000000 34.480202,226.000000 1.000000,226.000000 
	C1.000000,193.312775 1.000000,160.625046 1.000000,127.468658 
z"/>
<path fill="#E32624" opacity="1.000000" stroke="none" 
	d="
M85.010696,152.086823 
	C75.422562,152.481262 65.834419,152.875717 55.381866,153.360092 
	C46.493511,153.446594 38.469582,153.443176 30.445648,153.439743 
	C30.350990,149.299240 30.256330,145.158722 30.379017,140.182770 
	C30.694777,128.861038 30.793188,118.374779 30.891598,107.888512 
	C30.080999,102.696175 32.902134,99.035316 36.119503,95.557556 
	C39.151707,92.279930 42.216000,89.031982 45.576283,85.439438 
	C41.745678,84.972870 38.166203,84.837440 34.762508,83.993271 
	C33.104401,83.582047 30.612827,81.892090 30.567396,80.701996 
	C30.498739,78.903503 31.805075,76.499268 33.291336,75.298012 
	C37.821228,71.636780 42.962646,72.489960 46.690563,77.059601 
	C47.214062,77.701294 47.585976,78.466644 48.561443,80.029114 
	C50.878891,75.878250 52.932541,72.871674 54.325401,69.585052 
	C59.472683,57.439442 68.210403,51.171844 81.681648,51.696354 
	C86.477333,51.883080 91.305168,51.243984 96.932709,51.261559 
	C107.822006,51.404480 117.896912,51.267693 127.971825,51.130909 
	C136.113495,51.271305 144.257339,51.337936 152.396103,51.577225 
	C158.116684,51.745411 161.970886,54.909866 164.599243,59.782673 
	C167.120300,64.456520 169.611252,69.146767 172.159164,73.805893 
	C172.934128,75.222969 173.854202,76.560692 174.930740,78.293610 
	C176.367050,77.394287 177.535263,76.847321 178.480484,76.039444 
	C182.851501,72.303543 187.685059,71.900139 191.828613,75.612259 
	C193.185837,76.828148 194.078979,79.314186 193.964539,81.143044 
	C193.894089,82.269104 191.646805,83.843994 190.146439,84.176025 
	C186.832901,84.909340 183.373611,84.984222 179.401642,85.385513 
	C180.301880,86.220215 180.816422,86.796867 181.424835,87.246506 
	C190.801392,94.176193 194.244263,103.621490 194.103821,115.057747 
	C193.950729,127.524612 194.525864,140.000412 194.224091,152.928925 
	C185.665787,153.481079 177.666916,153.576599 169.668045,153.672119 
	C164.931198,153.642044 160.187820,153.757294 155.459229,153.544098 
	C149.890228,153.292999 144.334076,152.757294 138.049683,151.972900 
	C136.530121,151.411179 135.733643,151.058075 134.936295,151.056122 
	C119.535278,151.018097 104.134056,150.996567 88.733261,151.062210 
	C87.490967,151.067505 86.251488,151.729828 85.010696,152.086823 
M146.158630,122.239052 
	C146.113586,121.158905 146.068542,120.078766 146.098907,118.501175 
	C146.075226,118.335152 146.051544,118.169121 146.169632,117.109596 
	C146.345551,108.043213 146.345551,108.042274 137.378983,108.041878 
	C121.050812,108.041161 104.722633,108.040833 88.394463,108.042015 
	C79.717499,108.042648 79.715546,108.044296 79.955551,116.518021 
	C79.969643,117.015594 80.055115,117.511162 80.044342,118.501472 
	C80.044342,118.501472 80.110580,118.995117 79.983063,119.787415 
	C80.023033,120.853821 80.063004,121.920219 80.031723,123.499023 
	C80.055603,123.669800 80.079491,123.840576 79.979263,124.923958 
	C79.961220,126.583809 79.926987,128.243683 79.927940,129.903519 
	C79.932014,136.994705 79.935799,137.002960 87.159645,137.005524 
	C102.765007,137.011078 118.370377,137.007309 133.975739,137.007324 
	C146.865921,137.007339 146.865921,137.007324 146.094711,123.499496 
	C146.094711,123.499496 146.024109,123.041206 146.158630,122.239052 
M106.043076,55.032303 
	C93.915916,55.599464 81.782478,56.067455 69.667877,56.833202 
	C67.691238,56.958141 64.880669,57.858376 64.019859,59.320953 
	C59.598843,66.832619 55.689014,74.645142 51.709473,82.147385 
	C92.435013,82.147385 132.501862,82.147385 172.829681,82.147385 
	C169.027130,74.952347 165.338043,67.529793 161.159622,60.393753 
	C160.182327,58.724709 157.635681,57.251888 155.657516,57.024471 
	C149.228256,56.285347 142.727814,56.165512 135.452911,55.529995 
	C125.959808,55.389488 116.466713,55.248981 106.043076,55.032303 
M166.682434,129.388763 
	C169.434204,129.708710 172.179672,130.104477 174.938965,130.333832 
	C182.103165,130.929321 187.944565,125.929115 188.068939,119.480774 
	C188.128784,116.377983 186.809631,115.300056 183.967606,115.422653 
	C178.347321,115.665123 172.674744,115.501472 167.120361,116.236069 
	C161.667374,116.957275 156.334259,118.584778 149.770905,120.083458 
	C151.748840,122.675438 152.572556,124.850456 154.054276,125.482269 
	C157.842697,127.097656 161.924194,128.025742 166.682434,129.388763 
M55.231064,130.803589 
	C57.431538,130.195709 59.634594,129.597000 61.831970,128.978119 
	C66.862160,127.561394 72.183731,126.551102 74.351173,120.048698 
	C62.612331,116.665680 50.982273,115.444534 39.171036,116.378647 
	C38.073753,116.465424 36.275574,119.216789 36.366383,120.630501 
	C36.635014,124.812515 38.792767,128.018967 43.308083,128.890488 
	C46.991241,129.601395 50.691257,130.224960 55.231064,130.803589 
z"/>
<path fill="#120D0D" opacity="1.000000" stroke="none" 
	d="
M169.624603,154.051025 
	C177.666916,153.576599 185.665787,153.481079 194.102631,153.411789 
	C195.857742,166.844284 193.667816,169.072144 180.316833,167.908035 
	C171.145889,167.108414 169.529327,165.078903 169.624603,154.051025 
z"/>
<path fill="#120E0F" opacity="1.000000" stroke="none" 
	d="
M30.363514,153.837280 
	C38.469582,153.443176 46.493511,153.446594 54.926937,153.560760 
	C56.973015,167.133698 54.593727,168.685974 40.940338,167.838623 
	C31.967468,167.281723 30.238754,164.768082 30.363514,153.837280 
z"/>
<path fill="#EA1406" opacity="1.000000" stroke="none" 
	d="
M85.468956,152.180298 
	C86.251488,151.729828 87.490967,151.067505 88.733261,151.062210 
	C104.134056,150.996567 119.535278,151.018097 134.936295,151.056122 
	C135.733643,151.058075 136.530121,151.411179 137.661438,151.843750 
	C120.639641,152.149048 103.283424,152.211411 85.468956,152.180298 
z"/>
<path fill="#B06C7D" opacity="1.000000" stroke="none" 
	d="
M30.746262,108.277557 
	C30.793188,118.374779 30.694777,128.861038 30.413027,139.721146 
	C30.147219,135.693466 30.064751,131.291931 29.951797,126.196571 
	C29.921312,125.502731 29.835318,125.047928 29.835318,125.047928 
	C30.090521,119.587486 30.345722,114.127037 30.746262,108.277557 
z"/>
<path fill="#EA1507" opacity="1.000000" stroke="none" 
	d="
M127.510612,51.052841 
	C117.896912,51.267693 107.822006,51.404480 97.393539,51.335365 
	C107.043129,51.077904 117.046265,51.026340 127.510612,51.052841 
z"/>
<path fill="#3BC6ED" opacity="1.000000" stroke="none" 
	d="
M29.760750,125.155365 
	C29.835318,125.047928 29.921312,125.502731 29.890963,125.732193 
	C29.646725,125.757812 29.588581,125.524872 29.760750,125.155365 
z"/>
<path fill="#0B0B0B" opacity="1.000000" stroke="none" 
	d="
M136.254761,55.807278 
	C142.727814,56.165512 149.228256,56.285347 155.657516,57.024471 
	C157.635681,57.251888 160.182327,58.724709 161.159622,60.393753 
	C165.338043,67.529793 169.027130,74.952347 172.829681,82.147385 
	C132.501862,82.147385 92.435013,82.147385 51.709473,82.147385 
	C55.689014,74.645142 59.598843,66.832619 64.019859,59.320953 
	C64.880669,57.858376 67.691238,56.958141 69.667877,56.833202 
	C81.782478,56.067455 93.915916,55.599464 106.875244,55.261436 
	C117.223198,55.596142 126.738983,55.701710 136.254761,55.807278 
z"/>
<path fill="#504F50" opacity="1.000000" stroke="none" 
	d="
M146.024124,123.957008 
	C146.865921,137.007324 146.865921,137.007339 133.975739,137.007324 
	C118.370377,137.007309 102.765007,137.011078 87.159645,137.005524 
	C79.935799,137.002960 79.932014,136.994705 79.927940,129.903519 
	C79.926987,128.243683 79.961220,126.583809 80.502625,124.463043 
	C102.692039,123.987083 124.358078,123.972046 146.024124,123.957008 
M106.500008,130.000610 
	C118.747116,130.000610 130.994232,130.000610 143.241333,130.000610 
	C143.239334,129.752731 143.237335,129.504852 143.235336,129.256973 
	C123.079025,129.256973 102.922714,129.256973 82.766396,129.256973 
	C82.762772,129.504852 82.759148,129.752731 82.755524,130.000610 
	C90.337021,130.000610 97.918518,130.000610 106.500008,130.000610 
z"/>
<path fill="#524F50" opacity="1.000000" stroke="none" 
	d="
M80.107368,118.007660 
	C80.055115,117.511162 79.969643,117.015594 79.955551,116.518021 
	C79.715546,108.044296 79.717499,108.042648 88.394463,108.042015 
	C104.722633,108.040833 121.050812,108.041161 137.378983,108.041878 
	C146.345551,108.042274 146.345551,108.043213 145.627945,117.556068 
	C123.426628,118.004242 101.766998,118.005951 80.107368,118.007660 
z"/>
<path fill="#FDF9F9" opacity="1.000000" stroke="none" 
	d="
M166.285446,129.308746 
	C161.924194,128.025742 157.842697,127.097656 154.054276,125.482269 
	C152.572556,124.850456 151.748840,122.675438 149.770905,120.083458 
	C156.334259,118.584778 161.667374,116.957275 167.120361,116.236069 
	C172.674744,115.501472 178.347321,115.665123 183.967606,115.422653 
	C186.809631,115.300056 188.128784,116.377983 188.068939,119.480774 
	C187.944565,125.929115 182.103165,130.929321 174.938965,130.333832 
	C172.179672,130.104477 169.434204,129.708710 166.285446,129.308746 
M178.932892,121.469910 
	C180.110062,122.524361 181.154556,124.034187 182.522797,124.432816 
	C183.165146,124.619965 184.916382,122.806587 185.253616,121.637001 
	C185.502136,120.775047 183.991623,118.482552 183.747452,118.550919 
	C182.092972,119.014153 180.566879,119.935959 178.932892,121.469910 
z"/>
<path fill="#FCF7F7" opacity="1.000000" stroke="none" 
	d="
M54.807430,130.845428 
	C50.691257,130.224960 46.991241,129.601395 43.308083,128.890488 
	C38.792767,128.018967 36.635014,124.812515 36.366383,120.630501 
	C36.275574,119.216789 38.073753,116.465424 39.171036,116.378647 
	C50.982273,115.444534 62.612331,116.665680 74.351173,120.048698 
	C72.183731,126.551102 66.862160,127.561394 61.831970,128.978119 
	C59.634594,129.597000 57.431538,130.195709 54.807430,130.845428 
M40.324894,123.107033 
	C41.875187,123.545105 43.509052,124.467491 44.941105,124.220367 
	C45.675694,124.093605 46.579967,121.801498 46.411888,120.630936 
	C46.286930,119.760727 43.959949,118.294800 43.650902,118.519653 
	C42.260078,119.531601 41.239479,121.052368 40.324894,123.107033 
z"/>
<path fill="#504F50" opacity="1.000000" stroke="none" 
	d="
M80.102966,122.986626 
	C80.063004,121.920219 80.023033,120.853821 80.507660,119.392815 
	C102.696007,118.998352 124.359756,118.998482 146.023499,118.998619 
	C146.068542,120.078766 146.113586,121.158905 145.621033,122.628677 
	C123.423271,123.007736 101.763115,122.997185 80.102966,122.986626 
z"/>
<path fill="#757071" opacity="1.000000" stroke="none" 
	d="
M80.067345,123.242828 
	C101.763115,122.997185 123.423271,123.007736 145.553772,123.029755 
	C146.024109,123.041206 146.094711,123.499496 146.059418,123.728256 
	C124.358078,123.972046 102.692039,123.987083 80.564690,124.006737 
	C80.079491,123.840576 80.055603,123.669800 80.067345,123.242828 
z"/>
<path fill="#636061" opacity="1.000000" stroke="none" 
	d="
M146.061203,118.749893 
	C124.359756,118.998482 102.696007,118.998352 80.571426,118.996666 
	C80.110580,118.995117 80.044342,118.501472 80.075851,118.254562 
	C101.766998,118.005951 123.426628,118.004242 145.557053,118.002815 
	C146.051544,118.169121 146.075226,118.335152 146.061203,118.749893 
z"/>
<path fill="#232327" opacity="1.000000" stroke="none" 
	d="
M135.853836,55.668636 
	C126.738983,55.701710 117.223198,55.596142 107.340515,55.299522 
	C116.466713,55.248981 125.959808,55.389488 135.853836,55.668636 
z"/>
<path fill="#636061" opacity="1.000000" stroke="none" 
	d="
M106.000015,130.000610 
	C97.918518,130.000610 90.337021,130.000610 82.755524,130.000610 
	C82.759148,129.752731 82.762772,129.504852 82.766396,129.256973 
	C102.922714,129.256973 123.079025,129.256973 143.235336,129.256973 
	C143.237335,129.504852 143.239334,129.752731 143.241333,130.000610 
	C130.994232,130.000610 118.747116,130.000610 106.000015,130.000610 
z"/>
<path fill="#A19A9B" opacity="1.000000" stroke="none" 
	d="
M178.966095,121.089722 
	C180.566879,119.935959 182.092972,119.014153 183.747452,118.550919 
	C183.991623,118.482552 185.502136,120.775047 185.253616,121.637001 
	C184.916382,122.806587 183.165146,124.619965 182.522797,124.432816 
	C181.154556,124.034187 180.110062,122.524361 178.966095,121.089722 
z"/>
<path fill="#9D9697" opacity="1.000000" stroke="none" 
	d="
M40.205143,122.748352 
	C41.239479,121.052368 42.260078,119.531601 43.650902,118.519653 
	C43.959949,118.294800 46.286930,119.760727 46.411888,120.630936 
	C46.579967,121.801498 45.675694,124.093605 44.941105,124.220367 
	C43.509052,124.467491 41.875187,123.545105 40.205143,122.748352 
z"/>
</svg>