<svg version="1.1" id="Layer_1" xmlns="http://www.w3.org/2000/svg" xmlns:xlink="http://www.w3.org/1999/xlink" x="0px" y="0px"
	 width="100%" viewBox="0 0 224 225" enable-background="new 0 0 224 225" xml:space="preserve">
<path fill="#FEFEFE" opacity="1.000000" stroke="none" 
	d="
M124.000000,226.000000 
	C82.666672,226.000000 41.833340,226.000000 1.000005,226.000000 
	C1.000004,151.000000 1.000004,76.000015 1.000002,1.000015 
	C75.666656,1.000010 150.333313,1.000010 224.999969,1.000005 
	C224.999985,75.999985 224.999985,150.999969 225.000000,225.999969 
	C191.500000,226.000000 158.000000,226.000000 124.000000,226.000000 
M122.748993,7.094140 
	C118.146980,7.368585 113.545547,7.653222 108.942802,7.914853 
	C103.398994,8.229978 97.762924,7.988897 92.323730,8.912656 
	C38.262894,18.094009 -0.374958,71.289146 6.807454,126.398369 
	C14.771352,187.503769 70.156006,228.762527 130.944122,218.873917 
	C180.727600,210.775467 218.717087,167.277588 219.804291,116.156006 
	C220.748535,71.756721 196.184189,34.079632 156.603088,16.373209 
	C146.276962,11.753861 134.602753,10.148037 122.748993,7.094140 
z"/>
<path fill="#2C6495" opacity="1.000000" stroke="none" 
	d="
M123.148338,7.126149 
	C134.602753,10.148037 146.276962,11.753861 156.603088,16.373209 
	C196.184189,34.079632 220.748535,71.756721 219.804291,116.156006 
	C218.717087,167.277588 180.727600,210.775467 130.944122,218.873917 
	C70.156006,228.762527 14.771352,187.503769 6.807454,126.398369 
	C-0.374958,71.289146 38.262894,18.094009 92.323730,8.912656 
	C97.762924,7.988897 103.398994,8.229978 108.942802,7.914853 
	C113.545547,7.653222 118.146980,7.368585 123.148338,7.126149 
M53.638172,132.022751 
	C56.888844,131.653168 60.132324,131.192612 63.391842,130.934937 
	C68.511292,130.530258 72.456459,128.288681 73.929939,123.277420 
	C75.375725,118.360359 73.730690,114.190742 69.185143,111.479866 
	C74.880188,104.064056 73.088799,96.232483 64.804306,94.927528 
	C57.762344,93.818298 50.407009,94.698532 43.192486,94.698532 
	C43.192486,106.896637 43.192486,118.800858 43.192486,130.576660 
	C46.594414,131.093201 49.652748,131.557587 53.638172,132.022751 
M109.923241,107.223473 
	C111.361755,100.767410 109.313187,96.012589 103.244385,95.063080 
	C96.019241,93.932663 88.570930,94.228622 81.225510,93.906853 
	C81.225510,106.871994 81.225510,118.772499 81.225510,130.922043 
	C87.972519,130.922043 94.435539,130.958679 100.897926,130.910461 
	C106.068085,130.871887 110.123123,128.576157 111.671898,123.647339 
	C113.215492,118.734993 111.800400,114.256599 107.117073,111.430954 
	C108.109634,110.059044 108.884262,108.988358 109.923241,107.223473 
M163.355713,95.842178 
	C158.023499,105.881302 152.691269,115.920418 147.188278,126.281044 
	C151.859451,127.614159 154.432236,126.522461 156.200195,122.970917 
	C159.084076,117.177620 162.123795,111.459633 165.216751,105.774597 
	C165.841507,104.626297 166.995361,103.765854 168.223099,102.425797 
	C171.943893,109.556160 175.273209,116.016228 178.680771,122.434761 
	C180.554520,125.964157 182.959793,128.169983 187.430725,125.011978 
	C180.925812,112.904869 174.483322,100.913948 167.584335,88.073395 
	C165.929230,91.174744 164.846100,93.204315 163.355713,95.842178 
M123.140335,96.176628 
	C120.803108,95.314507 118.465881,94.452385 116.128654,93.590256 
	C115.858597,94.058189 115.588547,94.526123 115.318489,94.994057 
	C121.795738,107.019783 128.272980,119.045517 135.217239,131.938309 
	C142.165848,118.977745 148.615158,106.948479 155.160980,94.739204 
	C148.500122,93.719170 148.520096,93.729782 145.739517,98.963165 
	C142.373993,105.297462 138.970352,111.611496 135.178833,118.689140 
	C130.978607,110.819931 127.246719,103.828156 123.140335,96.176628 
z"/>
<path fill="#F5F7F9" opacity="1.000000" stroke="none" 
	d="
M53.174629,132.022354 
	C49.652748,131.557587 46.594414,131.093201 43.192486,130.576660 
	C43.192486,118.800858 43.192486,106.896637 43.192486,94.698532 
	C50.407009,94.698532 57.762344,93.818298 64.804306,94.927528 
	C73.088799,96.232483 74.880188,104.064056 69.185143,111.479866 
	C73.730690,114.190742 75.375725,118.360359 73.929939,123.277420 
	C72.456459,128.288681 68.511292,130.530258 63.391842,130.934937 
	C60.132324,131.192612 56.888844,131.653168 53.174629,132.022354 
M63.628685,108.661171 
	C67.351517,106.266655 66.730522,103.676643 63.589272,100.214554 
	C58.737373,100.214554 53.885475,100.214554 49.292313,100.214554 
	C49.292313,103.417091 49.292313,106.144066 49.292313,108.774017 
	C54.062298,108.774017 58.492348,108.774017 63.628685,108.661171 
M61.762218,125.653404 
	C63.049702,125.372658 64.868874,125.518677 65.510384,124.719429 
	C66.724548,123.206764 68.003952,121.088379 67.855400,119.340744 
	C67.728333,117.845833 65.677254,115.358337 64.415543,115.319656 
	C59.423210,115.166588 54.406643,115.803612 49.266537,116.156792 
	C49.266537,119.418236 49.266537,122.443985 49.266537,125.744858 
	C53.347431,125.744858 57.114101,125.744858 61.762218,125.653404 
z"/>
<path fill="#F6F8FA" opacity="1.000000" stroke="none" 
	d="
M109.791061,107.570572 
	C108.884262,108.988358 108.109634,110.059044 107.117073,111.430954 
	C111.800400,114.256599 113.215492,118.734993 111.671898,123.647339 
	C110.123123,128.576157 106.068085,130.871887 100.897926,130.910461 
	C94.435539,130.958679 87.972519,130.922043 81.225510,130.922043 
	C81.225510,118.772499 81.225510,106.871994 81.225510,93.906853 
	C88.570930,94.228622 96.019241,93.932663 103.244385,95.063080 
	C109.313187,96.012589 111.361755,100.767410 109.791061,107.570572 
M101.637505,108.655457 
	C105.263832,104.976357 105.165474,103.752022 100.044365,99.961159 
	C95.814552,99.961159 91.584732,99.961159 87.311577,99.961159 
	C87.311577,103.215286 87.311577,106.049736 87.311577,108.775887 
	C92.082237,108.775887 96.502296,108.775887 101.637505,108.655457 
M103.912483,124.675369 
	C104.438248,122.302010 105.831551,119.652122 105.193298,117.649811 
	C104.747116,116.250069 101.526054,114.991013 99.538040,114.981400 
	C95.396667,114.961365 91.251083,115.811615 87.234024,116.289177 
	C87.234024,119.577728 87.234024,122.489456 87.234024,126.178650 
	C92.749374,125.777901 97.954445,125.399696 103.912483,124.675369 
z"/>
<path fill="#F8F9FB" opacity="1.000000" stroke="none" 
	d="
M163.559341,95.538033 
	C164.846100,93.204315 165.929230,91.174744 167.584335,88.073395 
	C174.483322,100.913948 180.925812,112.904869 187.430725,125.011978 
	C182.959793,128.169983 180.554520,125.964157 178.680771,122.434761 
	C175.273209,116.016228 171.943893,109.556160 168.223099,102.425797 
	C166.995361,103.765854 165.841507,104.626297 165.216751,105.774597 
	C162.123795,111.459633 159.084076,117.177620 156.200195,122.970917 
	C154.432236,126.522461 151.859451,127.614159 147.188278,126.281044 
	C152.691269,115.920418 158.023499,105.881302 163.559341,95.538033 
z"/>
<path fill="#F7F8FA" opacity="1.000000" stroke="none" 
	d="
M123.327583,96.506500 
	C127.246719,103.828156 130.978607,110.819931 135.178833,118.689140 
	C138.970352,111.611496 142.373993,105.297462 145.739517,98.963165 
	C148.520096,93.729782 148.500122,93.719170 155.160980,94.739204 
	C148.615158,106.948479 142.165848,118.977745 135.217239,131.938309 
	C128.272980,119.045517 121.795738,107.019783 115.318489,94.994057 
	C115.588547,94.526123 115.858597,94.058189 116.128654,93.590256 
	C118.465881,94.452385 120.803108,95.314507 123.327583,96.506500 
z"/>
<path fill="#306797" opacity="1.000000" stroke="none" 
	d="
M61.321495,125.699127 
	C57.114101,125.744858 53.347431,125.744858 49.266537,125.744858 
	C49.266537,122.443985 49.266537,119.418236 49.266537,116.156792 
	C54.406643,115.803612 59.423210,115.166588 64.415543,115.319656 
	C65.677254,115.358337 67.728333,117.845833 67.855400,119.340744 
	C68.003952,121.088379 66.724548,123.206764 65.510384,124.719429 
	C64.868874,125.518677 63.049702,125.372658 61.321495,125.699127 
z"/>
<path fill="#2C6495" opacity="1.000000" stroke="none" 
	d="
M63.973900,100.990524 
	C66.730522,103.676643 67.351517,106.266655 62.960297,108.463387 
	C59.311966,108.176529 56.327335,107.943871 53.353451,108.040787 
	C50.649696,108.128922 49.982079,106.873428 49.958710,104.424812 
	C49.933826,101.817505 50.953239,100.869843 53.506184,100.966331 
	C56.990749,101.098045 60.484238,100.993683 63.973900,100.990524 
z"/>
<path fill="#0E578E" opacity="1.000000" stroke="none" 
	d="
M63.781586,100.602539 
	C60.484238,100.993683 56.990749,101.098045 53.506184,100.966331 
	C50.953239,100.869843 49.933826,101.817505 49.958710,104.424812 
	C49.982079,106.873428 50.649696,108.128922 53.353451,108.040787 
	C56.327335,107.943871 59.311966,108.176529 62.607155,108.519806 
	C58.492348,108.774017 54.062298,108.774017 49.292313,108.774017 
	C49.292313,106.144066 49.292313,103.417091 49.292313,100.214554 
	C53.885475,100.214554 58.737373,100.214554 63.781586,100.602539 
z"/>
<path fill="#306797" opacity="1.000000" stroke="none" 
	d="
M103.536003,124.848434 
	C97.954445,125.399696 92.749374,125.777901 87.234024,126.178650 
	C87.234024,122.489456 87.234024,119.577728 87.234024,116.289177 
	C91.251083,115.811615 95.396667,114.961365 99.538040,114.981400 
	C101.526054,114.991013 104.747116,116.250069 105.193298,117.649811 
	C105.831551,119.652122 104.438248,122.302010 103.536003,124.848434 
z"/>
<path fill="#2D6595" opacity="1.000000" stroke="none" 
	d="
M100.954445,100.153366 
	C105.165474,103.752022 105.263832,104.976357 100.965149,108.460800 
	C97.339432,108.177238 94.382004,107.952324 91.433945,108.040474 
	C88.858246,108.117485 87.941978,107.093109 87.961372,104.557724 
	C87.979858,102.140846 88.639732,100.960167 91.316124,100.940666 
	C94.530640,100.917252 97.741821,100.436241 100.954445,100.153366 
z"/>
<path fill="#0E578E" opacity="1.000000" stroke="none" 
	d="
M100.499405,100.057266 
	C97.741821,100.436241 94.530640,100.917252 91.316124,100.940666 
	C88.639732,100.960167 87.979858,102.140846 87.961372,104.557724 
	C87.941978,107.093109 88.858246,108.117485 91.433945,108.040474 
	C94.382004,107.952324 97.339432,108.177238 100.607567,108.521011 
	C96.502296,108.775887 92.082237,108.775887 87.311577,108.775887 
	C87.311577,106.049736 87.311577,103.215286 87.311577,99.961159 
	C91.584732,99.961159 95.814552,99.961159 100.499405,100.057266 
z"/>
</svg>